<svg width="136" height="40" viewBox="0 0 136 40" fill="none" xmlns="http://www.w3.org/2000/svg">
<path fill-rule="evenodd" clip-rule="evenodd" d="M12.6811 1.07096L12.4607 2.74802C10.7964 2.66965 9.3025 2.61675 7.63818 2.61675C5.40961 2.59128 4.20961 2.59128 3.86675 5.31651C3.64634 7.12483 4.03818 7.56957 5.55655 8.17202L8.86169 9.48173C11.4086 10.479 11.9954 11.8925 11.6525 14.5648C11.1392 18.5214 9.35149 19.2551 5.36063 19.2551C4.35655 19.2551 2.47181 19.2032 0.21875 18.7585L0.488138 17.054C3.35344 17.1598 4.33206 17.2117 5.38512 17.1862C8.17597 17.1862 9.18006 16.8453 9.49842 14.3297C9.71883 12.4695 9.32699 12.0502 7.80863 11.4478L4.4545 10.1116C2.07997 9.16826 1.39426 7.62149 1.71263 5.08042C2.22691 1.01904 4.30757 0.546875 7.68618 0.546875C9.32699 0.573324 11.0658 0.67814 12.6811 1.07096Z" fill="white"/>
<path fill-rule="evenodd" clip-rule="evenodd" d="M31.8879 12.0483C31.1776 17.3146 29.2684 19.2796 25.0082 19.2796C20.6745 19.2796 18.9112 17.2362 19.6214 11.9435L21.0408 0.859375H23.2204L21.751 12.0483C21.2368 15.9519 22.0449 17.2097 24.9582 17.2097C27.946 17.2097 29.2185 15.8471 29.7572 11.9435L31.1776 0.859375H33.3572L31.8879 12.0483Z" fill="white"/>
<path fill-rule="evenodd" clip-rule="evenodd" d="M47.5073 2.61651C46.0379 2.61651 44.7409 2.61651 43.7613 2.64296L42.8062 9.95365H46.3073C48.9766 9.95365 49.8093 9.16704 50.2246 6.18124C50.6165 3.29733 49.8338 2.61651 47.5073 2.61651ZM52.3553 6.36345C51.743 10.9754 50.2246 11.9442 46.3807 11.9442C45.0103 11.9442 43.6388 11.8403 42.5858 11.7081L41.6307 18.9404H39.4766L41.8521 0.861081C43.7123 0.651449 44.9358 0.625 47.5807 0.625C51.4981 0.625 52.9175 2.14533 52.3553 6.36345Z" fill="white"/>
<path fill-rule="evenodd" clip-rule="evenodd" d="M62.1835 4.57799L61.6692 8.50909H68.9407L68.7203 10.291H61.4488L60.813 15.2947C60.6406 16.5006 61.0579 16.9992 62.159 16.9992H68.7702L68.7203 18.8066C66.5662 18.9643 64.1182 18.9643 61.8896 18.9643C59.4171 18.9643 58.3151 17.5752 58.6089 15.3476L60.1018 3.92362C60.3467 1.98501 61.5712 0.832031 63.6529 0.832031C66.1498 0.832031 68.6958 0.832031 70.9489 0.988766L70.655 2.79709H63.9222C62.8202 2.79709 62.3304 3.32117 62.1835 4.57799Z" fill="white"/>
<path fill-rule="evenodd" clip-rule="evenodd" d="M87.1809 5.86582C87.5238 3.3512 86.8381 2.61749 84.4146 2.61749C82.8962 2.61749 81.5992 2.64394 80.5942 2.64394L79.7135 9.40312H83.337C85.8105 9.37765 86.8136 8.59104 87.1809 5.86582ZM85.5901 10.5032L85.5656 10.6354C86.4962 10.9234 87.083 11.763 87.3524 13.2813L88.4289 18.9414H86.2258L85.2227 13.2304C84.9778 11.8668 84.3891 11.3956 83.3125 11.3956C81.6482 11.3682 80.3992 11.3682 79.4686 11.3427L78.4655 18.9414H76.3594L78.7339 0.862061C80.5941 0.652429 82.0155 0.625 84.4635 0.625C87.9646 0.625 89.8738 1.83088 89.3605 5.94516C88.9932 8.69683 87.9401 10.1897 85.5901 10.5032Z" fill="white"/>
<mask id="mask0_1_951" style="mask-type:luminance" maskUnits="userSpaceOnUse" x="0" y="20" width="16" height="20">
<path d="M0 20.9258H15.8406V39.5116H0V20.9258Z" fill="white"/>
</mask>
<g mask="url(#mask0_1_951)">
<path fill-rule="evenodd" clip-rule="evenodd" d="M9.30416 38.2459C9.01029 39.0541 8.44702 39.5116 7.66335 39.5116H3.59902C2.81535 39.5116 2.22857 38.866 2.13061 38.0579L0 20.9258H4.62759L5.5582 33.4792C5.60718 34.2326 5.63167 35.0407 5.60718 35.795H6.24392C6.39086 35.0133 6.61029 34.26 6.85518 33.5321L11.0184 20.9258H15.841L9.30416 38.2459Z" fill="white"/>
</g>
<path fill-rule="evenodd" clip-rule="evenodd" d="M26.3977 31.3467L25.9569 26.6064C25.8834 25.9599 25.8834 25.286 25.8834 24.6669H25.1732C25.0508 25.2331 24.8794 25.906 24.6599 26.58L22.9701 31.3467H26.3977ZM26.7651 35.172H21.5987L20.0559 39.5077H15.2578L22.0395 22.1356C22.3334 21.3539 22.9212 20.9219 23.6803 20.9219H27.8906C28.6498 20.9219 29.2865 21.542 29.36 22.3237L31.76 39.5077H27.1569L26.7651 35.172Z" fill="white"/>
<path fill-rule="evenodd" clip-rule="evenodd" d="M49.6883 24.5895L40.9729 35.8479H48.4638L47.9995 39.5106H35.2188L35.6596 35.8479L44.4005 24.5895H37.3484L37.8137 20.9258H50.1536L49.6883 24.5895Z" fill="white"/>
<path fill-rule="evenodd" clip-rule="evenodd" d="M61.8368 24.3462H59.4622L58.9724 28.2802H61.0286C62.547 28.2802 63.0123 27.8757 63.2572 26.0703C63.4286 24.6959 63.0848 24.3462 61.8368 24.3462ZM60.9306 31.4845H58.5561L57.9683 36.0896H60C61.8368 36.0896 62.351 35.6595 62.6204 33.6935C62.8408 31.8881 62.498 31.4845 60.9306 31.4845ZM64.1868 29.8143L64.1633 29.9495C66.7827 30.1914 67.5909 32.0497 67.199 35.0659C66.7092 38.8109 64.946 39.7268 60.8572 39.7268C57.2336 39.7268 55.3244 39.7003 53.0469 39.5103L55.4224 20.9255C57.4296 20.7374 59.1674 20.7109 61.9837 20.7109C66.3419 20.7109 68.1042 21.8414 67.6389 25.747C67.3215 28.3331 66.4643 29.5988 64.1868 29.8143Z" fill="white"/>
<path fill-rule="evenodd" clip-rule="evenodd" d="M80.2049 33.6624L79.4702 39.5077H74.8426L75.6263 33.394L71.7344 20.9219H76.3365L77.9029 27.3069C78.0998 28.2766 78.1478 29.0574 78.1478 29.8646H78.4671C78.5641 29.1377 78.8825 28.1405 79.2498 27.3069L82.4815 20.9219H87.4039L80.2049 33.6624Z" fill="white"/>
<mask id="mask1_1_951" style="mask-type:luminance" maskUnits="userSpaceOnUse" x="91" y="0" width="45" height="40">
<path d="M91.7344 0.164062H135.973V39.3477H91.7344V0.164062Z" fill="white"/>
</mask>
<g mask="url(#mask1_1_951)">
<path fill-rule="evenodd" clip-rule="evenodd" d="M126.781 39.3477H93.9719C92.5936 39.3477 91.5425 38.1125 91.7639 36.7528L96.9665 4.72994C97.3946 2.09876 99.6682 0.164062 102.336 0.164062H133.523C135.032 0.164062 136.184 1.51688 135.942 3.00684L130.558 36.1357C130.257 37.9871 128.657 39.3477 126.781 39.3477Z" fill="#E95241"/>
</g>
<path fill-rule="evenodd" clip-rule="evenodd" d="M126.838 36.4091H95.5003C94.6568 36.4091 94.025 35.6381 94.1905 34.8123L94.5246 33.1421C94.7146 32.1939 95.5473 31.5111 96.5141 31.5111H126.052C126.956 31.5111 127.833 31.2055 128.538 30.6412L129.58 29.8125L128.677 34.8701C128.517 35.7606 127.744 36.4091 126.838 36.4091Z" fill="white"/>
</svg>
