<svg width="18" height="18" viewBox="0 0 18 18" fill="none" xmlns="http://www.w3.org/2000/svg">
<path d="M7.17017 10.9323C8.82195 12.581 10.8991 13.1015 10.8991 13.1015L12.7204 11.2107C13.3402 10.5921 14.0516 10.7287 14.9669 11.2031L15.9319 11.7451C16.5879 12.1135 17.0023 12.8058 17.0008 13.5583C17.0008 13.5642 17.0008 13.57 17.0008 13.5759C16.9964 14.1466 16.7636 14.7962 16.1872 15.3726C14.7808 16.779 12.8547 17.0134 11.272 16.9994C8.60127 16.9758 6.21449 15.2643 4.45847 13.5082C2.7022 11.7525 1.02424 9.3995 1.0006 6.72874C0.986612 5.14611 1.21009 3.22001 2.61653 1.81356C3.19288 1.23721 3.84246 1.00433 4.41322 1C4.41907 1 4.42492 1 4.43076 1C5.1833 0.998479 5.87534 1.41263 6.24398 2.06882L6.78602 3.0339C7.19279 3.88128 7.39695 4.66052 6.77839 5.28035L4.95551 7.16984C4.95551 7.16984 5.52144 9.28078 7.17017 10.9326V10.9323Z" stroke="white" stroke-width="1.5" stroke-miterlimit="13.33" stroke-linecap="round"/>
</svg>
