<svg width="24" height="24" viewBox="0 0 24 24" fill="none" xmlns="http://www.w3.org/2000/svg">
<g clip-path="url(#clip0_1_1054)">
<path d="M11.1717 9.42578L6.83594 13.9045L10.7775 11.7831L12.8271 13.9045L17.1235 9.42578L13.2213 11.5473L11.1717 9.42578Z" fill="white"/>
<path d="M12 0.28125C5.52792 0.28125 0.28125 5.52792 0.28125 12C0.28125 18.4721 5.52792 23.7188 12 23.7188C18.4721 23.7188 23.7188 18.4721 23.7188 12C23.7188 5.52792 18.4721 0.28125 12 0.28125ZM12 18.7771C11.2403 18.7747 10.4845 18.669 9.75333 18.4631L6.95489 20.0346V17.0878C5.18119 15.7518 4.07756 13.6697 4.07756 11.391C4.07747 6.31523 8.48058 3.96562 12 3.96562C16.3359 3.96562 19.9225 7.22648 19.9225 11.3517C19.9225 15.477 16.3751 18.7771 12 18.7771Z" fill="white"/>
</g>
<defs>
<clipPath id="clip0_1_1054">
<rect width="24" height="24" fill="white"/>
</clipPath>
</defs>
</svg>
