<svg width="24" height="24" viewBox="0 0 24 24" fill="none" xmlns="http://www.w3.org/2000/svg">
<g clip-path="url(#clip0_1_1050)">
<path d="M12.0078 14.4609C13.367 14.4609 14.4688 13.3591 14.4688 12C14.4688 10.6409 13.367 9.53906 12.0078 9.53906C10.6487 9.53906 9.54688 10.6409 9.54688 12C9.54688 13.3591 10.6487 14.4609 12.0078 14.4609Z" fill="white"/>
<path d="M12 0.28125C5.52792 0.28125 0.28125 5.52792 0.28125 12C0.28125 18.4721 5.52792 23.7188 12 23.7188C18.4721 23.7188 23.7188 18.4721 23.7188 12C23.7188 5.52792 18.4721 0.28125 12 0.28125ZM19.2402 14.9784C19.184 16.0926 18.8709 17.1912 18.059 17.9945C17.2392 18.8055 16.1353 19.1076 15.0105 19.1633H8.98959C7.86459 19.1076 6.76087 18.8056 5.94108 17.9945C5.12911 17.1912 4.81608 16.0926 4.75983 14.9784V9.02156C4.81608 7.90744 5.12916 6.80878 5.94108 6.00544C6.76087 5.1945 7.86473 4.89234 8.98959 4.8367H15.0104C16.1354 4.89234 17.2391 5.19436 18.0589 6.00544C18.8709 6.80878 19.1839 7.90744 19.2402 9.02156L19.2402 14.9784Z" fill="white"/>
<path d="M14.9357 6.19423C13.4692 6.15401 10.5339 6.15401 9.06734 6.19423C8.30417 6.21518 7.439 6.40516 6.89525 6.98595C6.33021 7.58965 6.1167 8.31902 6.09504 9.13498C6.05698 10.5671 6.09504 14.8655 6.09504 14.8655C6.11984 15.6814 6.33021 16.4109 6.89525 17.0146C7.439 17.5955 8.30417 17.7853 9.06734 17.8063C10.5339 17.8465 13.4692 17.8465 14.9357 17.8063C15.6989 17.7853 16.5641 17.5954 17.1078 17.0146C17.6728 16.4109 17.8864 15.6815 17.908 14.8655V9.13498C17.8864 8.31902 17.6728 7.58965 17.1078 6.98595C16.5639 6.40498 15.6987 6.21518 14.9357 6.19423ZM12.0013 15.8147C11.2469 15.8147 10.5094 15.591 9.88214 15.1719C9.25486 14.7527 8.76595 14.157 8.47724 13.46C8.18854 12.763 8.113 11.996 8.26018 11.2561C8.40736 10.5162 8.77065 9.83649 9.30411 9.30303C9.83757 8.76957 10.5172 8.40628 11.2572 8.2591C11.9971 8.11192 12.7641 8.18746 13.4611 8.47616C14.1581 8.76487 14.7538 9.25378 15.1729 9.88106C15.5921 10.5083 15.8158 11.2458 15.8158 12.0003C15.8158 13.0119 15.4139 13.9821 14.6986 14.6975C13.9832 15.4128 13.013 15.8147 12.0013 15.8147ZM15.832 8.97316C15.6811 8.97313 15.5337 8.92835 15.4082 8.8445C15.2828 8.76065 15.185 8.64149 15.1273 8.50209C15.0696 8.36269 15.0545 8.2093 15.084 8.06133C15.1134 7.91335 15.1861 7.77744 15.2928 7.67076C15.3995 7.56409 15.5355 7.49145 15.6834 7.46203C15.8314 7.43261 15.9848 7.44773 16.1242 7.50547C16.2636 7.56322 16.3827 7.661 16.4665 7.78645C16.5504 7.91191 16.5951 8.0594 16.5951 8.21027C16.5951 8.31047 16.5754 8.40969 16.537 8.50226C16.4987 8.59483 16.4424 8.67894 16.3716 8.74979C16.3007 8.82063 16.2166 8.87682 16.124 8.91515C16.0314 8.95347 15.9322 8.97319 15.832 8.97316Z" fill="white"/>
</g>
<defs>
<clipPath id="clip0_1_1050">
<rect width="24" height="24" fill="white"/>
</clipPath>
</defs>
</svg>
