<svg width="16" height="16" viewBox="0 0 16 16" fill="none" xmlns="http://www.w3.org/2000/svg">
<path d="M7.99736 0.934912C4.094 0.934912 0.929688 4.09924 0.929688 8.00261C0.929688 9.37677 1.32227 10.659 2.0008 11.7442L0.929688 15.0703L4.25578 13.9992C5.34094 14.6777 6.62321 15.0703 7.99736 15.0703C11.9007 15.0703 15.065 11.906 15.065 8.00261C15.065 4.09924 11.9007 0.934912 7.99736 0.934912Z" stroke="white" stroke-width="1.5" stroke-miterlimit="10" stroke-linecap="round" stroke-linejoin="round"/>
<path d="M8.74739 8.0013C8.74739 8.41479 8.41218 8.75 7.99869 8.75C7.58521 8.75 7.25 8.41479 7.25 8.0013C7.25 7.58781 7.58521 7.25261 7.99869 7.25261C8.41218 7.25261 8.74739 7.58781 8.74739 8.0013Z" fill="white"/>
<path d="M11.7396 8.0013C11.7396 8.41479 11.4044 8.75 10.9909 8.75C10.5774 8.75 10.2422 8.41479 10.2422 8.0013C10.2422 7.58781 10.5774 7.25261 10.9909 7.25261C11.4044 7.25261 11.7396 7.58781 11.7396 8.0013Z" fill="white"/>
<path d="M5.74739 8.0013C5.74739 8.41479 5.41218 8.75 4.99869 8.75C4.58521 8.75 4.25 8.41479 4.25 8.0013C4.25 7.58781 4.58521 7.25261 4.99869 7.25261C5.41218 7.25261 5.74739 7.58781 5.74739 8.0013Z" fill="white"/>
</svg>
