<svg width="30" height="30" viewBox="0 0 30 30" fill="none" xmlns="http://www.w3.org/2000/svg">
<path d="M4.0625 23.7384C6.02297 19.6724 10.1828 16.8672 14.9984 16.8672C19.8139 16.8672 23.9738 19.6723 25.9342 23.7384C23.3676 26.9453 19.421 29.0005 14.9984 29.0005C10.5753 29.0005 6.62915 26.9453 4.0625 23.7384Z" stroke="white" stroke-width="1.5" stroke-miterlimit="10" stroke-linecap="round" stroke-linejoin="round"/>
<path d="M14.9984 16.8641C18.0912 16.8641 20.5984 14.3569 20.5984 11.2641C20.5984 8.17127 18.0912 5.66406 14.9984 5.66406C11.9056 5.66406 9.39844 8.17127 9.39844 11.2641C9.39844 14.3569 11.9056 16.8641 14.9984 16.8641Z" stroke="white" stroke-width="1.5" stroke-miterlimit="10" stroke-linecap="round" stroke-linejoin="round"/>
<path d="M15 29C22.732 29 29 22.732 29 15C29 7.26801 22.732 1 15 1C7.26801 1 1 7.26801 1 15C1 22.732 7.26801 29 15 29Z" stroke="white" stroke-width="1.5" stroke-miterlimit="10" stroke-linecap="round" stroke-linejoin="round"/>
</svg>
