<svg width="18" height="18" viewBox="0 0 18 18" fill="none" xmlns="http://www.w3.org/2000/svg">
<g clip-path="url(#clip0_1_1072)">
<path d="M9 18C13.9706 18 18 13.9706 18 9C18 4.02944 13.9706 0 9 0C4.02944 0 0 4.02944 0 9C0 13.9706 4.02944 18 9 18Z" fill="#E95241"/>
<path d="M15.0225 7.57857L13.1221 8.68244L9.42891 10.8287C9.08315 11.0259 8.66055 11.0259 8.31479 10.8287L4.62156 8.68244L2.71604 7.57857C2.5009 7.45051 2.5009 7.13549 2.71604 7.00743L8.31479 3.75728C8.66055 3.56007 9.08315 3.56007 9.42891 3.75728L15.0225 7.00743C15.2428 7.13549 15.2428 7.45051 15.0225 7.57857Z" fill="white"/>
<path d="M9.78066 11.94C9.50406 12.0988 9.19159 12.1833 8.87657 12.1833C8.56154 12.1833 8.24908 12.0988 7.97503 11.9426L4.625 9.99609V11.7249C4.625 12.1116 4.82733 12.4651 5.16285 12.6597L7.49609 14.0095C8.34896 14.4987 9.39649 14.4987 10.2442 14.0095L12.5826 12.6597C12.913 12.4651 13.1204 12.1116 13.1204 11.7249V9.99609L9.77554 11.94H9.78066Z" fill="white"/>
<path d="M15.1213 12.3396V8.83594L14.2915 9.31744V12.3396C14.0968 12.4728 13.9688 12.6956 13.9688 12.9492C13.9688 13.3564 14.2991 13.6868 14.7064 13.6868C15.1136 13.6868 15.444 13.3564 15.444 12.9492C15.444 12.6956 15.3159 12.4728 15.1213 12.3396Z" fill="white"/>
</g>
<defs>
<clipPath id="clip0_1_1072">
<rect width="18" height="18" fill="white"/>
</clipPath>
</defs>
</svg>
